<svg xmlns="http://www.w3.org/2000/svg" viewBox="0 0 575.94 575.94"><defs><style>.cls-1{fill:#101820;}.cls-2{fill:#7f2629;}.cls-3{fill:#cb9700;}.cls-4{fill:#c1c5c8;}.cls-5{fill:#5b6670;}.cls-6{fill:#323e48;}.cls-7{fill:#1d252c;}</style></defs><title>Hitler</title><g id="_4" data-name="4"><path class="cls-1" d="M315.13,329.72c0,51.76,31.24,207.11,128.37,207.11v37.93H132.44V536.83c97.13,0,126.64-155.35,126.64-207.11Z" transform="translate(0 1.18)"/><path class="cls-1" d="M315.13,243.86c0-51.76,31.24-207.11,128.37-207.11V-1.18H132.44V36.75c97.13,0,126.64,155.35,126.64,207.11Z" transform="translate(0 1.18)"/><path class="cls-1" d="M330.9,259.63c51.76,0,207.11-31.24,207.11-128.37h37.93V442.32H538c0-97.13-155.35-126.64-207.11-126.64Z" transform="translate(0 1.18)"/><path class="cls-1" d="M245,314c-51.76,0-207.11,31.24-207.11,128.37H0V131.26H37.93C37.93,228.39,193.28,257.9,245,257.9Z" transform="translate(0 1.18)"/><circle class="cls-2" cx="288.42" cy="288.48" r="209.99"/><circle class="cls-3" cx="288.42" cy="288.48" r="163.58"/><path class="cls-4" d="M184.23,404.22c2.73,7.21,17.1,43.4,22.93,43.93,10,.92,58.38,15.43,65.42,14.79S396.72,361.56,396.29,343.32s17.17-194.63,0-198.15S256.92,73,222,102.31s-71.51,81.42-69.34,120.79S177,319.82,178,327.72C174.15,351.92,172.67,363.07,184.23,404.22Z" transform="translate(0 1.18)"/><path class="cls-4" d="M146.48,261.49a20.94,20.94,0,0,0-8.33.14c-1.75,1.89-3.24,6.78-3.88,12.07.49,5.21,8.26,21.6,20.38,39.94-3.48,15.78-6.84,23.57-7.64,25.17,2.35,8.7,5.62,14.93,8.64,21.77,4,3.89,5.7,4.25,9.76,5.53,4.31-1.92,6.42-2.85,8.88-6.17,1-2.88,4.8-59.83,1.28-65.59s-13.84-24.25-16.4-25.53c-2.88-7.28-9.93-12.62-11-11.81" transform="translate(0 1.18)"/><path class="cls-5" d="M184.23,404.22c-12.32-38.79-15-71.66-10.29-82.33-5.25-10.36-10.15-22.57-15.46-39.14,1.75-14.39,5.65-26.18,16.31-36.36-1.7-3-8.42-29-6.4-48.85l17.49-27.08c3.42-7.68.48-27.89,1.27-38.82,6.55,2.24,37.52,4.26,47.42,4.62-40,12.16-44.42,29.4-48.69,34.2-13.65,31.67-13.43,47.24-11.09,75.93-2.77,9.6-11.09,33.27,12,76.78C180.34,342.79,176.12,363.7,184.23,404.22Z" transform="translate(0 1.18)"/><path class="cls-5" d="M143.6,261.49c-2.24-3-4.27-69.74.37-85.1,0,0,25.58-40.75,36.39-46.53,2-13.25,3.92-19.47,12.88-39.1,15.2-13.56,33-25,52-30.72a311.29,311.29,0,0,1,42.33,0c4.61,1.5-80.42,77.46-85.38,78.74s-38.23,9.29-40.79,69,4.05,85.24-2.93,75a40,40,0,0,0-2.19-13.93C150.32,260.74,143.6,261.49,143.6,261.49Z" transform="translate(0 1.18)"/><path class="cls-5" d="M157,293.18a24.93,24.93,0,0,1-3.52,11.76c2.35,3.15,4.32,13.06,4.75,20.9-.43-9.6-.06-16.63,3.09-24.31C158.26,299.82,157.19,296.29,157,293.18Z" transform="translate(0 1.18)"/><path class="cls-5" d="M158.17,325.19c1.07,4.8.52,13.65-.49,17.39a31.23,31.23,0,0,0-3.88-8A25.12,25.12,0,0,0,158.17,325.19Z" transform="translate(0 1.18)"/><path class="cls-5" d="M237.28,150.19c24.9-4.21,65.22-2.93,89,11.09-23.19-5.7-69.26-2.24-95.87,7.25,13.81-3,31.56-6.39,62.6,4.16-21.44-2.4-57.11,2.08-78.17,16,70.65-21.91,128.4,3,162.84,21.86A45.91,45.91,0,0,1,373,220.79c4.08,10.53,13.44,31.17,15.36,33.81-5.15-3.61-.37-.34-5.06-3.54-1.87-.32-4.22,3.7-5.39,11.53-10.11,7.68-43,19.52-75,4.8,9.19,5.43,21.35,10.48,31.67,12.48-13-.4-31.89-5.54-32.85-6.29,6.05,7,26.45,23.25,30.82,24.74,4.51-.77,21.36.75,26.66,1.87,5-7.61,19-21.87,27.52-27,7.52,17.17,2.72,39.57-.64,46.39-.22,50.55-17.17,65-58.23,22.72-26.71-23.36-32,1.6-35.19,4.16,1.24,0,1.72.32,2.88,1.33,1.82.41,3.84.89,5.44,3.15,1.33,1.63,12.4,4,15,4.31-.32,9.87,1.71,22.13,7.6,32.48-6.56,5.6-36.71,17.7-61,9.92,32.64,14.61,33.76,41.91,6.56,26.71,7.09,10.93,7.45,12.77,9,21.59-39.31,14.76-29.55,6-71,2.24,15.21,2.28,29.59,8.29,42.39,11.49,8.92,5.55,30.2,12.12,39,12.12,9.27,0,33-9.35,39.78-14,5.65-3.52,18.61-8.61,21-12.13s46.07-78.22,45.75-82.22,27-157.4,22.39-163.16-68.73-72.35-107.71-67.29C296.74,144.7,245.87,144.06,237.28,150.19Z" transform="translate(0 1.18)"/><path class="cls-5" d="M272.69,326.05c-3.84,4.58-6.55,11.79-7.79,17.06a18.33,18.33,0,0,0,11.52,2.45C273,341,268.53,334.69,272.69,326.05Z" transform="translate(0 1.18)"/><path class="cls-5" d="M222,384.91c11.76-27.14,16.8-39.17,32.21-57.26a11.24,11.24,0,0,0,5.65,17.49,10.7,10.7,0,0,1-10.56-1.07C239.31,354.65,234.19,362.41,222,384.91Z" transform="translate(0 1.18)"/><path class="cls-5" d="M266.5,267c-26.63,16.13-56.62,12.43-83.5,4.94,5.68,10.24,19,24.31,24.69,28.69,6.78-1.82,9.09-2.21,22.23-2.46,11.89-4.36,27.19-16.36,32.85-22.29-10.77,5.66-12.5,5.29-25,6.67C248.35,278.67,251.79,277.23,266.5,267Z" transform="translate(0 1.18)"/><path class="cls-6" d="M376.24,195.41c6.41,0,20.28-2.59,25.7-4,1.23,9.59-.75,15.46-5,22.77,12.91,21.11,5.81,91.55-10.82,105.41,14.18,42-15.25,94.49-36.37,65.37,10.45,34.84,6.51,61.18-11.3,62.6-8.48.13-25.6-17.15-46.71-4.9,16.63-6.17,38.15,6.15,36.58,15.11,6-2.35,29.11-8.5,41.16-9.57,14.4-20.61,29.75-71.06,29.75-89.15,1.82,2,2.56,3.73,7.26,5.33,4.05-1.38,5.23-1.9,7.89-4.05,1.49-2.13,5.44-14.61,7.68-21.12-.43-2.55-2.71-19-2.35-26.87,5.12-6.4,17.49-24.42,22.82-35.62-1.06-1.28-2.34-11.73-6.93-17.91-5.17-.36-6.45-.08-6.45-.08s-22.66-112.33-39.51-121.5-80.2-10.66-79.88-4.26C325.69,152.75,356.72,183.25,376.24,195.41Z" transform="translate(0 1.18)"/><path class="cls-6" d="M309.8,132.92c-17.44,6.07-106.23,4.15-122.65-1.28-.86,16.37,4.37,28.53-1.27,38.82-4.47,7.31-11.09,17.17-17.49,27.08.48,27.26,2.19,32.06,6.4,48.85-9.86,11.5-13.22,23.5-16.31,36.36-5.76-14.39-7.95-88-3.63-109.4,7.68-13.6,21.58-33.71,25.51-43.49C206.84,96.09,255.8,65.69,287.58,60,290.17,90.41,292.26,94.79,309.8,132.92Z" transform="translate(0 1.18)"/><path class="cls-6" d="M295.62,256.68c-2.35,18.5.8,44.36,8,61.26,2.66-6.77,2.45-11.62,1.6-17.75,1.38,8.15,3,17,9.11,24.79,2.88-1.32,8.8,3.51,8.87,11.84a22.62,22.62,0,0,1-2.79,10.56,30,30,0,0,1-15.51-5c-4,.8-7.15,3.78-12.16,4,3.46-4.54,6-15.41-1.6-24.32,5.33-12.1,6.4-24.58-2.77-45C292.79,271.39,293.8,269.05,295.62,256.68Z" transform="translate(0 1.18)"/><path class="cls-6" d="M143.54,286.12c-1.06-5.65-1.28-9.71.86-13,5.65,1.49,10.55,10.55,12.58,20.07C153.57,287.08,141.7,272.52,143.54,286.12Z" transform="translate(0 1.18)"/><path class="cls-7" d="M410.37,325.94c-1.07,4.8-.52,13.65.49,17.38a31.15,31.15,0,0,1,3.88-8A25.12,25.12,0,0,1,410.37,325.94Z" transform="translate(0 1.18)"/><path class="cls-7" d="M412.82,310.48c-4.8-15,.32-32.1,3.73-39.78,2.45,2.88,3.25,4.39,9.71,4.37-1.28,2.13-5.23,6.38-9.71,7.68-1.28,6.08.64,15.68,2.35,18.13C417.57,305.27,415.91,306.64,412.82,310.48Z" transform="translate(0 1.18)"/><path class="cls-7" d="M386.8,101.88c9.66,10.88,27.51,45.22,30.18,59.72,8,8.21,17.49,23.36,18.66,39.78-.32,14.5-3.18,40.73-6.45,57.3-4.8,1.49-11,6.15-12.64,12a73.85,73.85,0,0,0-6.4-16.74c.43-12.69,1.69-28,3.31-35.52-1.71-3.84-9.35-18.07-11.52-27.08a13.39,13.39,0,0,0,3.57-1.71c-17.86-6-75.23-36.37-95.71-56.73C291.88,96.34,289.4,84.46,287.58,60,312.54,67.19,374,90.15,386.8,101.88Z" transform="translate(0 1.18)"/><path class="cls-7" d="M323.2,337.38c9.7,5.76,17.85,24.29,26.59,47.53-10-21.86-17.59-33.48-29.38-37.53A27.52,27.52,0,0,0,323.2,337.38Z" transform="translate(0 1.18)"/><path class="cls-7" d="M298,236.47a19.63,19.63,0,0,1-.42,6.29c7.3-3,27-8.64,32.2-8.43,8.59,3.1,42.39,16.43,51.94,19.95,1.81.58,3.52-1.23,2-2.88-3.41-3.58-42.79-24.9-59.08-30.08C319.67,225.27,305.69,234.17,298,236.47Z" transform="translate(0 1.18)"/><path class="cls-7" d="M295.62,347.75c2.61,1,4.48,2,5.44,3.15,1.34,0,13.27-.38,14-1.07a38.43,38.43,0,0,1-7.58-2.77A57.26,57.26,0,0,0,295.62,347.75Z" transform="translate(0 1.18)"/><path class="cls-7" d="M316.09,355.21c-1.06-1.44-58.62-1-60.06,0s-7.7,22.73-9.12,32.48c19.41-4.48,58.87-4.16,76.78,0C323.2,378.41,317.37,357,316.09,355.21Z" transform="translate(0 1.18)"/><path class="cls-7" d="M264.14,347.82c-.92,1.83-6,2.64-7.87,3.08,4.15,1.29,13.63,2.39,20.47.76C271.54,350.9,268.42,348.7,264.14,347.82Z" transform="translate(0 1.18)"/><path class="cls-7" d="M269.13,236.47a19.55,19.55,0,0,0,.43,6.29c-7.3-3-27-8.64-32.2-8.43-8.59,3.1-42.4,16.43-51.94,19.95-1.81.58-3.52-1.23-2-2.88,3.42-3.58,42.8-24.9,59.08-30.08C247.43,225.27,261.4,234.17,269.13,236.47Z" transform="translate(0 1.18)"/></g></svg>