<svg id="Layer_1" data-name="Layer 1" xmlns="http://www.w3.org/2000/svg" viewBox="0 0 51.03 61.27"><defs><style>.cls-1{fill:#fff;}.cls-2{fill:none;stroke:#fff;stroke-miterlimit:10;stroke-width:6.15px;}</style></defs><title>microphone</title><rect class="cls-1" x="14.6" width="21.94" height="43.49" rx="10.97"/><path class="cls-2" d="M41.61,24.57V31.7c0,9-7.18,17.1-16,17.1h0c-8.86,0-16-8.07-16-17.1V24.57"/><path class="cls-1" d="M46.56,24.58h2.66A1.81,1.81,0,0,1,51,26.39v2.94a1.81,1.81,0,0,1-1.81,1.81H46.56a0,0,0,0,1,0,0V24.58A0,0,0,0,1,46.56,24.58Z"/><path class="cls-1" d="M0,24.45H2.62A1.85,1.85,0,0,1,4.47,26.3v3.14a1.85,1.85,0,0,1-1.85,1.85H0a0,0,0,0,1,0,0V24.45A0,0,0,0,1,0,24.45Z" transform="translate(4.47 55.73) rotate(180)"/><rect class="cls-1" x="11.49" y="53.78" width="7.49" height="7.49" rx="3.11"/><rect class="cls-1" x="21.82" y="53.78" width="7.49" height="7.49" rx="3.11"/><rect class="cls-1" x="32.15" y="53.78" width="7.49" height="7.49" rx="3.11"/></svg>