<svg id="Layer_1" data-name="Layer 1" xmlns="http://www.w3.org/2000/svg" viewBox="0 0 12.46 28.47"><defs><style>.cls-1{fill:#fff;}</style></defs><title>support</title><path class="cls-1" d="M.83,0H3.47A3.09,3.09,0,0,1,6.56,3.09v2.6A3.09,3.09,0,0,1,3.47,8.78H.83A.83.83,0,0,1,0,7.95V.83A.83.83,0,0,1,.83,0Z"/><path class="cls-1" d="M8,25.56h2a2.46,2.46,0,0,0,2.46-2.45V5.37A2.46,2.46,0,0,0,10,2.91H8V25.56"/><path class="cls-1" d="M.84,19.69H3.47a3.09,3.09,0,0,1,3.09,3.09v2.6a3.09,3.09,0,0,1-3.09,3.09H.84A.83.83,0,0,1,0,27.64V20.52A.83.83,0,0,1,.84,19.69Z"/></svg>