<svg id="Layer_1" data-name="Layer 1" xmlns="http://www.w3.org/2000/svg" viewBox="0 0 54.97 52.67"><defs><style>.cls-1{fill:#fff;}</style></defs><title>text-bubble</title><path class="cls-1" d="M41.42,0H13.55A13.55,13.55,0,0,0,0,13.55V23.71A13.55,13.55,0,0,0,13.55,37.26H30.86c9.48,0,8.89,11.25,4.74,15.41,8.7,0,19.37-16,19.37-29V13.55A13.55,13.55,0,0,0,41.42,0Zm4.17,27a1.86,1.86,0,0,1-1.86,1.86H11.24A1.86,1.86,0,0,1,9.38,27V26a1.86,1.86,0,0,1,1.86-1.86H43.73A1.86,1.86,0,0,1,45.59,26Zm0-8.2a1.86,1.86,0,0,1-1.86,1.86H11.24A1.86,1.86,0,0,1,9.38,18.8v-1A1.87,1.87,0,0,1,11.24,16H43.73a1.87,1.87,0,0,1,1.86,1.87Zm0-8.2a1.86,1.86,0,0,1-1.86,1.86H11.24A1.86,1.86,0,0,1,9.38,10.6v-1a1.86,1.86,0,0,1,1.86-1.86H43.73a1.86,1.86,0,0,1,1.86,1.86Z" transform="translate(0)"/></svg>