<svg id="Layer_1" data-name="Layer 1" xmlns="http://www.w3.org/2000/svg" viewBox="0 0 27.7 19.87"><defs><style>.cls-1{fill:#fff;}</style></defs><title>web-cam</title><g id="Web_Cam" data-name="Web Cam"><path class="cls-1" d="M7.21,14.23H20.49a1.58,1.58,0,0,1,1.58,1.58v4.05a0,0,0,0,1,0,0H5.63a0,0,0,0,1,0,0V15.81A1.58,1.58,0,0,1,7.21,14.23Z"/><rect class="cls-1" x="10.66" y="11.42" width="6.38" height="3.36"/><path class="cls-1" d="M6.14,7.35V3.1A3.48,3.48,0,0,1,8.1,0H1.23A1.23,1.23,0,0,0,0,1.23v8a1.23,1.23,0,0,0,1.23,1.23H8.09A3.49,3.49,0,0,1,6.14,7.35Z"/><path class="cls-1" d="M26.47,0H19.6a3.49,3.49,0,0,1,2,3.1V7.35a3.49,3.49,0,0,1-1.95,3.09h6.85A1.23,1.23,0,0,0,27.7,9.21v-8A1.23,1.23,0,0,0,26.47,0Z"/><circle class="cls-1" cx="13.85" cy="5.22" r="2.79"/><circle class="cls-1" cx="18.83" cy="5.22" r="0.94"/></g></svg>